HIERARCHY
ROOT Hips
{
	OFFSET -3.958830 18.904000 13.208200
	CHANNELS 6 Xposition Yposition Zposition Zrotation Yrotation Xrotation 
	JOINT LHipJoint
	{
		OFFSET 0.000000 0.000000 0.000000
		CHANNELS 3 Zrotation Yrotation Xrotation
		JOINT LeftUpLeg
		{
			OFFSET 1.800000 -1.400000 0.085000
			CHANNELS 3 Zrotation Yrotation Xrotation
			JOINT LeftLeg
			{
				OFFSET 2.215000 -6.000000 0.000000
				CHANNELS 3 Zrotation Yrotation Xrotation
				JOINT LeftFoot
				{
					OFFSET 2.500000 -6.900000 0.000000
					CHANNELS 3 Zrotation Yrotation Xrotation
					JOINT LeftToeBase
					{
						OFFSET 0.200000 -0.500000 1.950000
						CHANNELS 3 Zrotation Yrotation Xrotation
						End Site
						{
							OFFSET 0.000000 0.000000 0.000000
						}
					}
				}
			}
		}
	}
	JOINT RHipJoint
	{
		OFFSET 0.000000 0.000000 0.000000
		CHANNELS 3 Zrotation Yrotation Xrotation
		JOINT RightUpLeg
		{
			OFFSET -1.800000 -1.400000 0.085000
			CHANNELS 3 Zrotation Yrotation Xrotation
			JOINT RightLeg
			{
				OFFSET -2.215000 -6.000000 0.000000
				CHANNELS 3 Zrotation Yrotation Xrotation
				JOINT RightFoot
				{
					OFFSET -2.500000 -6.900000 0.000000
					CHANNELS 3 Zrotation Yrotation Xrotation
					JOINT RightToeBase
					{
						OFFSET -0.200000 -0.500000 1.950000
						CHANNELS 3 Zrotation Yrotation Xrotation
						End Site
						{
							OFFSET 0.000000 0.000000 0.000000
						}
					}
				}
			}
		}
	}
	JOINT LowerBack
	{
		OFFSET 0.000000 0.000000 0.000000
		CHANNELS 3 Zrotation Yrotation Xrotation
		JOINT Spine
		{
			OFFSET -0.087000 1.940000 -0.288900
			CHANNELS 3 Zrotation Yrotation Xrotation
			JOINT Spine1
			{
				OFFSET 0.000000 1.950000 0.060000
				CHANNELS 3 Zrotation Yrotation Xrotation
				JOINT Neck
				{
					OFFSET 0.000000 0.000000 0.000000
					CHANNELS 3 Zrotation Yrotation Xrotation
					JOINT Neck1
					{
						OFFSET 0.000000 1.600000 0.340000
						CHANNELS 3 Zrotation Yrotation Xrotation
						JOINT Head
						{
							OFFSET 0.000000 1.667000 -0.240000
							CHANNELS 3 Zrotation Yrotation Xrotation
							End Site
							{
								OFFSET 0.000000 0.000000 0.000000
							}
						}
					}
				}
				JOINT LeftShoulder
				{
					OFFSET 0.000000 0.000000 0.000000
					CHANNELS 3 Zrotation Yrotation Xrotation
					JOINT LeftArm
					{
						OFFSET 2.700000 1.550000 -0.730000
						CHANNELS 3 Zrotation Yrotation Xrotation
						JOINT LeftForeArm
						{
							OFFSET 5.450000 0.000000 0.000000
							CHANNELS 3 Zrotation Yrotation Xrotation
							JOINT LeftHand
							{
								OFFSET 3.450000 0.000000 0.000000
								CHANNELS 3 Zrotation Yrotation Xrotation
								JOINT LeftHandIndex1
								{
									OFFSET 0.750000 0.000000 0.000000
									CHANNELS 3 Zrotation Yrotation Xrotation
									End Site
									{
										OFFSET 0.000000 0.000000 0.000000
									}
								}
							}
						}
					}
				}
				JOINT RightShoulder
				{
					OFFSET 0.000000 0.000000 0.000000
					CHANNELS 3 Zrotation Yrotation Xrotation
					JOINT RightArm
					{
						OFFSET -2.700000 1.550000 -0.730000
						CHANNELS 3 Zrotation Yrotation Xrotation
						JOINT RightForeArm
						{
							OFFSET -5.450000 0.000000 0.000000
							CHANNELS 3 Zrotation Yrotation Xrotation
							JOINT RightHand
							{
								OFFSET -3.450000 0.000000 0.000000
								CHANNELS 3 Zrotation Yrotation Xrotation
								JOINT RightHandIndex1
								{
									OFFSET -0.750000 0.000000 0.000000
									CHANNELS 3 Zrotation Yrotation Xrotation
									End Site
									{
										OFFSET 0.000000 0.000000 0.000000
									}
								}
							}
						}
					}
				}
			}
		}
	}
}
MOTION
Frames: 7
Frame Time: 0.016667
0.390820 18.597830 -3.559660 0.227821 30.011762 -12.323953 -16.075410 8.827648 8.743725 -50.608467 -25.892669 -37.237621 30.221820 -10.681098 79.736574 1.571740 13.723160 -0.333353 0.761960 0.553190 0.847570 18.461559 -7.405164 2.025957 1.924686 1.133081 1.956006 24.767438 -8.559638 10.612700 -1.229666 -4.705097 2.427622 0.272530 -0.645330 0.025500 -2.110889 -3.204057 -10.082841 -9.052035 9.137431 43.244617 -0.344386 9.131799 11.093554 0.910785 -6.946239 -18.362226 -39.350809 29.755622 59.414087 -13.746510 6.007350 -35.399230 -20.513380 -25.893397 6.747521 -44.691491 -15.908260 -12.305918 -73.949710 -56.356728 29.068819 -2.922212 3.119242 1.205940 -0.688800 0.646780 -0.159070 18.996860 34.524027 14.197136 59.348169 16.325861 -17.790905 119.380089 67.051866 71.961871 3.035092 -0.326397 -0.123940 0.337770 -0.010530 -0.421420 
0.569030 18.494210 -3.606550 3.654431 36.546916 -8.757978 -16.164649 8.661202 9.219544 -58.239127 -25.721612 -31.637219 33.692410 -14.182804 78.460227 1.811727 14.018170 -0.394676 0.865850 0.712780 0.864470 18.471622 -7.228920 1.660686 0.257937 0.786757 -1.539552 20.880079 -7.329264 9.535570 -1.083180 -4.007396 2.632143 0.324080 -0.719080 0.054540 -1.801593 -3.588341 -10.175278 -11.290319 8.902875 43.572166 1.035160 7.303215 11.670159 0.288758 -7.116254 -17.591008 -39.495795 29.218631 59.066691 -13.285840 4.927390 -36.856880 -20.134467 -24.714760 6.602233 -44.733595 -16.520227 -11.752198 -79.964630 -58.793505 34.673744 -2.860652 3.269386 1.154160 -0.731650 0.698900 -0.113650 19.708223 33.015819 13.271319 59.026092 17.031191 -16.945866 122.965623 66.395694 76.307931 2.964384 -0.520052 -0.017180 0.259890 -0.095420 -0.369090 
0.760880 18.375680 -3.614060 6.629780 37.418894 -6.945776 -16.177522 9.408058 8.632188 -60.841590 -20.003533 -25.128706 48.797213 -20.209627 63.377927 1.955881 14.067915 -0.369783 0.902460 0.778340 0.872380 18.331700 -7.538674 1.645439 -0.369705 0.109465 -1.949429 16.561976 -6.527931 8.974227 -1.003033 -3.572847 2.793762 0.336750 -0.735580 0.060900 -1.695451 -3.954435 -9.823245 -13.498356 9.773636 42.554658 2.082543 7.674155 13.496635 -0.091757 -7.264663 -17.413314 -39.360572 28.867482 59.899170 -13.126300 4.504300 -38.989000 -20.926893 -24.059043 7.034808 -44.339428 -15.191383 -11.704850 -89.461517 -62.636017 44.006461 -2.896250 3.230250 1.152410 -0.753470 0.738070 -0.085250 21.006370 33.031785 13.285895 57.547815 17.124311 -17.456817 128.818195 66.511865 84.232837 2.845166 -0.530639 0.018350 0.267590 -0.134340 -0.341040 
0.915220 18.181470 -3.623200 8.273406 34.957082 -5.559911 -16.112549 10.302197 7.690165 -57.115710 -14.320368 -22.115574 64.288823 -16.202019 38.094074 1.497693 11.644839 0.336456 0.854870 0.728600 0.823550 18.194978 -8.096280 1.785163 0.477107 -0.741669 -2.290410 12.480668 -6.030080 9.417801 -0.902837 -3.314790 2.923586 0.297240 -0.670380 0.061670 -1.871664 -3.895883 -9.360008 -14.803085 10.328356 40.475752 1.475193 8.597105 13.817397 -0.197935 -7.800795 -16.649874 -38.413698 27.680594 57.415899 -12.397730 5.541270 -37.711460 -20.197293 -21.308389 6.748957 -45.215071 -13.811204 -11.505123 -96.500551 -63.772517 50.553750 -3.011458 3.203489 1.106640 -0.709310 0.694810 -0.057290 20.144490 31.309879 12.743704 58.298321 16.834634 -15.425199 127.544675 64.171825 79.892147 2.854481 -0.777685 0.010030 0.257910 -0.140190 -0.316800 
1.060230 18.010330 -3.623380 8.265455 32.665827 -6.276625 -16.011796 11.079980 6.789258 -47.274784 -10.873576 -21.137551 60.122989 -12.411369 33.492591 1.100173 10.276060 0.792423 0.789260 0.581200 0.803230 18.103527 -8.555221 2.046145 0.415219 -0.787149 -1.989160 12.445926 -6.163970 9.972005 -0.867387 -3.423873 2.910550 0.259280 -0.562390 0.026000 -2.082758 -3.896602 -8.977471 -14.611081 10.167178 40.213876 1.398286 9.027381 13.256761 -0.643992 -8.341919 -16.064730 -39.081372 26.841263 55.086313 -10.031840 5.533010 -34.775890 -19.223936 -19.258030 6.267619 -45.520847 -13.136608 -11.170293 -100.089531 -60.808192 50.889231 -3.054799 3.213137 1.134990 -0.672340 0.603730 -0.043180 19.944027 29.657458 12.307918 58.258859 15.084528 -14.130068 127.386236 60.467251 75.144437 2.787427 -1.061493 -0.101270 0.313640 -0.107200 -0.345680 
1.225110 17.881110 -3.666750 6.265621 30.348347 -9.594219 -15.868008 11.620422 6.042858 -36.861323 -9.826806 -21.778127 48.661002 -11.328824 40.434397 0.876347 9.729487 0.964568 0.736080 0.493630 0.770080 18.084867 -8.962064 2.363442 0.350461 -0.588442 -0.338629 14.240610 -6.828066 11.014241 -0.917982 -3.847714 2.762089 0.227570 -0.500940 0.045550 -2.422073 -3.683658 -8.731310 -11.585509 8.223329 42.685326 -0.237177 8.265604 12.776494 -0.502022 -8.811431 -15.140846 -38.632137 26.024285 53.277945 -9.856090 5.346380 -33.107320 -19.816505 -17.543580 5.474338 -43.876160 -12.865165 -10.664648 -106.281212 -58.902208 54.702093 -3.123766 3.265246 1.106890 -0.628870 0.547660 -0.052250 19.999845 27.755892 11.252730 56.537363 15.044992 -13.420131 130.446600 59.365049 78.132826 2.722324 -1.151778 -0.126510 0.307460 -0.063050 -0.345500 
1.429030 17.756600 -3.726340 3.674842 26.826145 -13.208909 -15.709695 11.777890 5.609086 -26.749727 -11.756539 -27.610845 37.847287 -10.440815 54.468299 0.894919 10.501457 0.716951 0.695610 0.420280 0.728040 18.151983 -9.261153 2.559028 -0.131319 -0.242821 0.544881 17.215689 -7.897111 12.834192 -0.987427 -4.372945 2.597660 0.204180 -0.448350 0.036250 -2.854971 -3.149805 -8.675813 -7.027252 5.449394 45.706503 -2.510263 7.111796 11.098338 0.259164 -9.281129 -14.735690 -38.834819 25.750409 52.120446 -9.161610 4.597220 -30.874750 -20.396109 -16.044914 4.878638 -43.187833 -11.396602 -10.832736 -103.820918 -57.545447 51.649111 -3.133114 3.310485 1.088340 -0.601660 0.484540 -0.048370 19.226249 25.931285 10.443506 54.547843 14.463226 -13.808409 134.969323 60.069713 85.189620 2.649552 -1.134380 -0.158460 0.310190 -0.031150 -0.344690 
